<svg width="48" height="48" viewBox="0 0 48 48" fill="none" xmlns="http://www.w3.org/2000/svg">
<rect x="0.5" y="0.5" width="47" height="47" stroke="#E90707" stroke-opacity="0.2"/>
<path fill-rule="evenodd" clip-rule="evenodd" d="M24 34V34H27.8996C28.0547 34 28.2039 33.9383 28.3137 33.8285L33.8285 28.3137C33.9383 28.2039 34 28.0547 34 27.8996V20.1004C34 19.9453 33.9383 19.7961 33.8285 19.6863L28.3137 14.1715C28.2039 14.0617 28.0547 14 27.8996 14H27.8995H24H20.1005C19.9452 14 19.7961 14.0618 19.6862 14.1716L14.1716 19.6862C14.0618 19.7961 14 19.9452 14 20.1005V27.8994C14 28.0548 14.0618 28.2038 14.1716 28.3137L19.6862 33.8283C19.7961 33.9382 19.9452 34 20.1005 34H24ZM24 18.1406H23.2645C22.9236 18.1406 22.6546 18.4305 22.6802 18.7705L23.1799 25.4112C23.2029 25.7168 23.4576 25.9531 23.7642 25.9531H24H24.2358H24.2359C24.3125 25.9531 24.3858 25.9384 24.4532 25.9114C24.5336 25.8793 24.6054 25.8298 24.6638 25.7674C24.7131 25.7147 24.7529 25.6528 24.7801 25.5843C24.8017 25.5302 24.8155 25.4721 24.8201 25.4112L25.0832 21.914L25.3199 18.7707C25.3425 18.4677 25.1318 18.2046 24.8445 18.1507C24.8092 18.1441 24.7728 18.1406 24.7355 18.1406H24ZM22.8301 28.6855V28.6895C22.8301 29.3356 23.3539 29.8594 24 29.8594C24.0555 29.8594 24.1101 29.8555 24.1636 29.848C24.4212 29.812 24.652 29.6921 24.8273 29.5168C25.0126 29.3315 25.1359 29.0844 25.1639 28.8091C25.1679 28.7697 25.1699 28.7298 25.1699 28.6895V28.6855C25.1699 28.0394 24.6461 27.5156 24 27.5156C23.3539 27.5156 22.8301 28.0394 22.8301 28.6855Z" fill="#EC1C2A"/>
</svg>
