<svg width="48" height="48" viewBox="0 0 48 48" fill="none" xmlns="http://www.w3.org/2000/svg">
<rect x="0.5" y="0.5" width="47" height="47" stroke="#E90707" stroke-opacity="0.2"/>
<g clip-path="url(#clip0)">
<path d="M19.2079 29.4427C17.8738 29.4427 16.6871 28.5885 16.2562 27.3168L16.2271 27.221C16.1254 26.8842 16.0829 26.601 16.0829 26.3176V20.6357L14.0612 27.3843C13.8012 28.3769 14.3937 29.4059 15.3878 29.6802L28.274 33.1312C28.4349 33.1728 28.5957 33.1928 28.7541 33.1928C29.584 33.1928 30.3424 32.642 30.555 31.8302L31.3057 29.4427H19.2079Z" fill="#EC1C2A"/>
<path d="M21.4998 20.6929C22.419 20.6929 23.1664 19.9453 23.1664 19.0261C23.1664 18.1069 22.419 17.3594 21.4998 17.3594C20.5806 17.3594 19.833 18.1069 19.833 19.0261C19.833 19.9453 20.5806 20.6929 21.4998 20.6929Z" fill="#EC1C2A"/>
<path d="M31.9166 14.8584H19.4163C18.2681 14.8584 17.333 15.7935 17.333 16.9419V26.1087C17.333 27.2571 18.2681 28.1921 19.4163 28.1921H31.9166C33.0651 28.1921 34.0001 27.2571 34.0001 26.1087V16.9419C34.0001 15.7935 33.0651 14.8584 31.9166 14.8584ZM19.4163 16.5252H31.9166C32.1468 16.5252 32.3334 16.7118 32.3334 16.9419V22.8579L29.7009 19.786C29.4216 19.4586 29.0174 19.2836 28.5833 19.2736C28.1516 19.2761 27.7466 19.4677 27.47 19.7995L24.3748 23.5145L23.3665 22.5086C22.7966 21.9386 21.8689 21.9386 21.2998 22.5086L18.9998 24.8078V16.9419C18.9998 16.7118 19.1864 16.5252 19.4163 16.5252Z" fill="#EC1C2A"/>
</g>
<defs>
<clipPath id="clip0">
<rect width="20" height="20" fill="white" transform="translate(14 14)"/>
</clipPath>
</defs>
</svg>
