<svg width="48" height="48" viewBox="0 0 48 48" fill="none" xmlns="http://www.w3.org/2000/svg">
<rect x="0.5" y="0.5" width="47" height="47" stroke="#E90707" stroke-opacity="0.2"/>
<g clip-path="url(#clip0)">
<path d="M22.9787 23.5639C22.9787 23.9213 22.7058 24.151 22.2452 24.151H21.8826V23.0239C21.9497 23.0116 22.0768 22.9935 22.3 22.9935C22.7239 23.0006 22.9787 23.1884 22.9787 23.5639ZM34 24C34 24.7755 33.6968 25.5052 33.1503 26.0529L31.922 27.2813V29.0174C31.922 30.6168 30.6187 31.9206 29.0187 31.9206H27.2826L26.0555 33.149C25.5058 33.6974 24.7768 34 24.0007 34C23.2245 34 22.4955 33.6974 21.9465 33.1484L20.72 31.9226H18.9832C18.2071 31.9226 17.4787 31.62 16.9297 31.0729C16.3807 30.5226 16.08 29.7961 16.08 29.0194V27.2813L14.8516 26.0548C14.3032 25.5058 14.002 24.7774 14.002 24.0013C14.002 23.2252 14.3052 22.4961 14.8516 21.9484L16.08 20.7206V18.9839C16.08 17.3832 17.3832 16.0806 18.9832 16.0806H20.7194L21.9478 14.8516C22.4955 14.3032 23.2239 14 24.0007 14C24.7774 14 25.5058 14.3026 26.0549 14.8516L27.2813 16.0781H29.0181C29.7929 16.0781 30.5226 16.38 31.071 16.9277C31.6207 17.4774 31.9213 18.2058 31.9213 18.9813V20.7181L33.1497 21.9465C33.6968 22.4948 34 23.2239 34 24ZM20.2736 22.3406H17.7794V26.4206H18.7058V24.78H20.171V24.029H18.7058V23.0968H20.2749V22.34L20.2736 22.3406ZM24.0497 26.4206C23.971 26.2632 23.8445 25.7316 23.7168 25.271C23.6136 24.8961 23.4568 24.6226 23.171 24.5077V24.4903C23.522 24.3632 23.8916 24.0065 23.8916 23.4852C23.8916 23.1097 23.7581 22.8252 23.5161 22.6316C23.2258 22.4019 22.802 22.3103 22.1961 22.3103C21.7052 22.3103 21.2639 22.3471 20.9671 22.3955V26.4206H21.8813V24.8168H22.1607C22.5361 24.8232 22.7116 24.9626 22.82 25.4716C22.9413 25.9735 23.0381 26.3071 23.1039 26.4219L24.0497 26.4206ZM27.1594 25.6645H25.4807V24.6955H26.9826V23.9445H25.4807V23.0968H27.0749V22.34H24.5555V26.42H27.1594V25.6645ZM30.3903 25.6645H28.7129V24.6955H30.2142V23.9445H28.7129V23.0968H30.3058V22.34H27.7878V26.42H30.3903V25.6645Z" fill="#EC1C2A"/>
</g>
<defs>
<clipPath id="clip0">
<rect width="20" height="20" fill="white" transform="translate(14 14)"/>
</clipPath>
</defs>
</svg>
