<svg width="48" height="48" viewBox="0 0 48 48" fill="none" xmlns="http://www.w3.org/2000/svg">
<rect x="0.5" y="0.5" width="47" height="47" stroke="#E90707" stroke-opacity="0.2"/>
<g clip-path="url(#clip0)">
<path d="M19.0874 19.4014L17.3547 19.5352C16.8726 19.5725 16.4432 19.8252 16.1765 20.2285L14.1782 23.2508C13.976 23.5567 13.9438 23.9394 14.0922 24.2748C14.2405 24.6101 14.5454 24.8437 14.9077 24.8999L16.4942 25.1456C16.8653 23.1761 17.7538 21.2114 19.0874 19.4014Z" fill="#EC1C2A"/>
<path d="M22.8547 31.5053L23.1005 33.0918C23.1566 33.4541 23.3903 33.759 23.7255 33.9073C23.865 33.969 24.0127 33.9995 24.1596 33.9995C24.366 33.9995 24.5709 33.9394 24.7495 33.8213L27.7719 31.823C28.1752 31.5563 28.4279 31.1269 28.4651 30.6448L28.599 28.9121C26.7889 30.2458 24.8243 31.1342 22.8547 31.5053Z" fill="#EC1C2A"/>
<path d="M22.258 30.4063C22.3131 30.4063 22.3685 30.4017 22.4238 30.3925C23.2489 30.2546 24.0442 30.0221 24.8029 29.7179L18.2822 23.1973C17.978 23.9559 17.7456 24.7512 17.6076 25.5764C17.5532 25.9017 17.6623 26.233 17.8955 26.4662L21.5339 30.1046C21.7275 30.2982 21.9888 30.4063 22.258 30.4063Z" fill="#EC1C2A"/>
<path d="M32.4053 22.8672C34.0009 19.7823 34.06 16.5224 33.9766 14.9935C33.9481 14.4696 33.5304 14.052 33.0065 14.0234C32.7576 14.0098 32.4625 14 32.13 14C30.4204 14 27.7153 14.2589 25.1327 15.5948C23.0803 16.6563 20.3891 18.9939 18.8013 22.0658C18.82 22.0804 18.8383 22.096 18.8556 22.1133L25.8868 29.1445C25.9041 29.1617 25.9196 29.18 25.9342 29.1987C29.0062 27.6109 31.3437 24.9196 32.4053 22.8672ZM25.6288 18.2281C26.771 17.0859 28.6296 17.0858 29.7719 18.2281C30.3252 18.7814 30.63 19.5171 30.63 20.2997C30.63 21.0822 30.3252 21.8179 29.7719 22.3713C29.2008 22.9423 28.4505 23.2279 27.7003 23.228C26.95 23.228 26.2 22.9425 25.6288 22.3713C25.0754 21.8179 24.7706 21.0822 24.7706 20.2997C24.7706 19.5171 25.0754 18.7814 25.6288 18.2281Z" fill="#EC1C2A"/>
<path d="M26.4573 21.5429C27.1427 22.2282 28.2579 22.2283 28.9433 21.5429C29.2753 21.2109 29.4581 20.7695 29.4581 20.2999C29.4581 19.8304 29.2753 19.389 28.9433 19.057C28.6006 18.7143 28.1505 18.543 27.7003 18.543C27.2502 18.543 26.8 18.7143 26.4574 19.057C26.1254 19.389 25.9425 19.8304 25.9425 20.2999C25.9425 20.7695 26.1254 21.2109 26.4573 21.5429Z" fill="#EC1C2A"/>
<path d="M14.5979 30.4824C14.7479 30.4824 14.8978 30.4252 15.0122 30.3107L16.9252 28.3977C17.1541 28.1689 17.1541 27.7979 16.9252 27.5691C16.6964 27.3403 16.3254 27.3403 16.0966 27.5691L14.1836 29.4821C13.9548 29.7109 13.9548 30.0819 14.1836 30.3107C14.298 30.4251 14.448 30.4824 14.5979 30.4824Z" fill="#EC1C2A"/>
<path d="M18.6783 29.322C18.4495 29.0932 18.0785 29.0932 17.8497 29.322L14.1717 32.9999C13.9429 33.2288 13.9429 33.5998 14.1717 33.8286C14.2862 33.943 14.4361 34.0002 14.5861 34.0002C14.736 34.0002 14.886 33.943 15.0004 33.8285L18.6783 30.1506C18.9071 29.9218 18.9071 29.5508 18.6783 29.322Z" fill="#EC1C2A"/>
<path d="M19.6028 31.0749L17.6898 32.988C17.461 33.2168 17.461 33.5878 17.6898 33.8166C17.8042 33.931 17.9542 33.9882 18.1041 33.9882C18.254 33.9882 18.404 33.931 18.5184 33.8166L20.4314 31.9036C20.6602 31.6747 20.6602 31.3038 20.4314 31.0749C20.2026 30.8461 19.8316 30.8461 19.6028 31.0749Z" fill="#EC1C2A"/>
</g>
<defs>
<clipPath id="clip0">
<rect width="20" height="20" fill="white" transform="translate(14 14)"/>
</clipPath>
</defs>
</svg>
