<svg width="48" height="48" viewBox="0 0 48 48" fill="none" xmlns="http://www.w3.org/2000/svg">
<rect x="0.5" y="0.5" width="47" height="47" stroke="#E90707" stroke-opacity="0.2"/>
<g clip-path="url(#clip0)">
<path d="M24.4219 23.597C24.4186 23.5936 24.4176 23.589 24.4143 23.5856L21.0704 20.2417V18.1406C21.0704 17.9849 21.0086 17.8362 20.8987 17.7263L17.3831 14.1716C17.216 14.0046 16.9637 13.9537 16.7445 14.0446C16.5254 14.135 16.3829 14.349 16.3829 14.5859V16.3437H14.586C14.3492 16.3437 14.1351 16.4862 14.0448 16.7053C13.9538 16.9245 14.0041 17.1763 14.1718 17.3439L17.7265 20.8986C17.8364 21.0085 17.9851 21.0703 18.1407 21.0703H20.2419L23.5858 24.4142C23.5891 24.4175 23.5937 24.4185 23.5971 24.4217C23.8253 24.6395 24.1718 24.6424 24.403 24.4217C24.6464 24.1894 24.6409 23.8265 24.4219 23.597Z" fill="#EC1C2A"/>
<path d="M23.9999 14C22.5007 14 21.0831 14.3814 19.8066 14.9773L21.6041 16.7747C22.3584 16.5238 23.1625 16.3828 24 16.3828C28.1999 16.3828 31.6171 19.8 31.6171 23.9999C31.6171 28.1999 28.1999 31.6171 23.9999 31.6171C19.7999 31.6171 16.3828 28.1999 16.3828 23.9999C16.3828 23.1624 16.5238 22.3584 16.7746 21.604L14.9772 19.8066C14.3815 21.0831 14 22.5007 14 23.9999C14 29.4925 18.5074 33.9999 23.9999 33.9999C29.4925 33.9999 33.9999 29.4925 33.9999 23.9999C33.9999 18.5074 29.4925 14 23.9999 14Z" fill="#EC1C2A"/>
<path d="M24 18.7266C23.3806 18.7266 22.7947 18.8535 22.2421 19.0505V19.7565L23.5967 21.1111C23.7298 21.0925 23.8619 21.0703 24 21.0703C25.6153 21.0703 26.9296 22.3846 26.9296 24C26.9296 25.6154 25.6153 26.9297 24 26.9297C22.3846 26.9297 21.0703 25.6154 21.0703 24C21.0703 23.8619 21.0925 23.7298 21.1111 23.5968L19.7565 22.2421H19.0505C18.8535 22.7947 18.7266 23.3806 18.7266 24C18.7266 26.9079 21.0921 29.2734 24 29.2734C26.9079 29.2734 29.2734 26.9079 29.2734 24C29.2734 21.092 26.9079 18.7266 24 18.7266Z" fill="#EC1C2A"/>
</g>
<defs>
<clipPath id="clip0">
<rect width="20" height="20" fill="white" transform="translate(14 14)"/>
</clipPath>
</defs>
</svg>
