<svg width="48" height="48" viewBox="0 0 48 48" fill="none" xmlns="http://www.w3.org/2000/svg">
<rect x="0.5" y="0.5" width="47" height="47" stroke="#E90707" stroke-opacity="0.2"/>
<path d="M31.5781 19.4023L29.7148 21.2969L29.6093 21.4063L29.5468 21.4727C29.5039 21.5039 29.4531 21.5195 29.3945 21.5195C29.332 21.5195 29.2734 21.4961 29.2265 21.457L29.1914 21.4219L29.0859 21.3164L27.4726 19.6719L27.3867 19.5859L27.3203 19.5195C27.2812 19.4609 27.2578 19.3867 27.2578 19.3125C27.2578 19.2461 27.2812 19.1875 27.3203 19.1406L27.3476 19.1094L27.4492 19.0078L29.3203 17.1055C29.1211 16.7109 28.3554 16.5234 27.9492 16.5547C27.2812 16.6055 26.5937 16.8281 25.8867 17.5508C25.8593 17.582 25.8281 17.6133 25.8007 17.6406C24.8398 18.6875 24.6484 20.0938 25.039 21.3828C25.0664 21.4375 25.0898 21.5039 25.1015 21.5625C25.1445 21.7773 25.0859 21.9609 24.9453 22.0898L23.4648 23.5117C23.0039 23.043 22.9375 22.9805 22.9375 22.9805C22.8593 22.9023 22.7031 22.8516 22.5664 22.9336L22.3359 23.0742C21.4492 22.1719 21.0742 21.8086 20.9531 21.3711C20.8281 20.9141 20.9414 20.3047 21.0586 20.0781C21.1562 19.8984 21.4609 19.7305 21.7187 19.7109L22.0547 20.0547C22.1328 20.1328 22.2539 20.1328 22.332 20.0547L23.539 18.8281C23.6172 18.75 23.6172 18.6211 23.539 18.543L21.5898 16.5625C21.5117 16.4844 21.3867 16.4844 21.3125 16.5625L20.1054 17.7891C20.0273 17.8672 20.0273 17.9961 20.1054 18.0742L20.2343 18.207C20.2343 18.3984 20.207 18.6953 20.0507 18.8555C19.8086 19.1016 19.3281 18.8164 19.0156 19.0391C18.707 19.2578 18.3164 19.6094 18.0664 19.8594C17.8203 20.1094 16.875 21.1016 16.1992 22.7734C15.5234 24.4453 16.0429 25.9961 16.4101 26.4023C16.6054 26.6172 16.9609 26.8359 16.8984 26.4297C16.8359 26.0195 16.7343 24.5977 17.1992 24.0156C17.664 23.4336 18.2773 22.957 19.0742 22.918C19.8398 22.8789 20.2812 23.1406 21.2734 24.1484L21.164 24.3516C21.0937 24.4844 21.1328 24.6523 21.2109 24.7305C21.2109 24.7305 21.2695 24.793 21.6836 25.2148L17.8867 28.8555C17.2539 29.4141 17.289 30.4375 17.875 31.043C18.4687 31.6367 19.4804 31.6797 20.0312 31.0352L23.6015 27.1836C25.5195 29.2266 27.2461 31.3789 27.2461 31.3789C27.3242 31.457 27.4492 31.457 27.5234 31.3789L29.4726 29.3984C29.5507 29.3203 29.5507 29.1953 29.4726 29.1133C29.4726 29.1133 27.3164 27.3281 25.2929 25.3555L26.6797 23.8594C26.8086 23.7148 26.9882 23.6563 27.1992 23.6992C27.2578 23.7109 27.3203 23.7383 27.375 23.7656C28.6406 24.1641 30.0234 23.9688 31.0468 22.9922C31.0781 22.9648 31.1054 22.9336 31.1367 22.9023C31.8437 22.1836 32.0625 21.4805 32.1132 20.8008C32.1523 20.3867 31.9765 19.6172 31.5781 19.4023Z" fill="#EC1C2A"/>
</svg>
