<svg width="48" height="48" viewBox="0 0 48 48" fill="none" xmlns="http://www.w3.org/2000/svg">
<rect x="0.5" y="0.5" width="47" height="47" stroke="#E90707" stroke-opacity="0.2"/>
<g clip-path="url(#clip0)">
<path d="M31.7083 16.5H16.2917C15.0275 16.5 14 17.5275 14 18.7917V29.2083C14 30.4725 15.0275 31.5 16.2917 31.5H31.7083C32.9725 31.5 34 30.4725 34 29.2083V18.7917C34 17.5275 32.9725 16.5 31.7083 16.5V16.5ZM20.25 19.8333C21.3984 19.8333 22.3333 20.7683 22.3333 21.9167C22.3333 23.0649 21.3984 24 20.25 24C19.1016 24 18.1667 23.0649 18.1667 21.9167C18.1667 20.7683 19.1016 19.8333 20.25 19.8333ZM24 27.5417C24 27.8867 23.72 28.1667 23.375 28.1667H17.125C16.78 28.1667 16.5 27.8867 16.5 27.5417V27.125C16.5 25.8608 17.5275 24.8333 18.7917 24.8333H21.7083C22.9725 24.8333 24 25.8608 24 27.125V27.5417ZM30.875 28.1667H26.2917C25.9467 28.1667 25.6667 27.8867 25.6667 27.5417C25.6667 27.1967 25.9467 26.9167 26.2917 26.9167H30.875C31.22 26.9167 31.5 27.1967 31.5 27.5417C31.5 27.8867 31.22 28.1667 30.875 28.1667ZM30.875 24.8333H26.2917C25.9467 24.8333 25.6667 24.5533 25.6667 24.2083C25.6667 23.8633 25.9467 23.5833 26.2917 23.5833H30.875C31.22 23.5833 31.5 23.8633 31.5 24.2083C31.5 24.5533 31.22 24.8333 30.875 24.8333ZM30.875 21.5H26.2917C25.9467 21.5 25.6667 21.22 25.6667 20.875C25.6667 20.53 25.9467 20.25 26.2917 20.25H30.875C31.22 20.25 31.5 20.53 31.5 20.875C31.5 21.22 31.22 21.5 30.875 21.5Z" fill="#EC1C2A"/>
</g>
<defs>
<clipPath id="clip0">
<rect width="20" height="20" fill="white" transform="translate(14 14)"/>
</clipPath>
</defs>
</svg>
