<svg width="48" height="48" viewBox="0 0 48 48" fill="none" xmlns="http://www.w3.org/2000/svg">
<rect x="0.5" y="0.5" width="47" height="47" stroke="#E90707" stroke-opacity="0.2"/>
<g clip-path="url(#clip0)">
<path d="M18.6972 25.3457H17.2202C17.6401 26.1703 18.3797 26.7951 19.2804 27.0642C19.0604 26.6302 18.8398 26.0541 18.6972 25.3457Z" fill="#EC1C2A"/>
<path d="M19.3936 25.3457C19.5864 26.2129 19.9048 26.8354 20.1492 27.2114C20.183 27.2124 20.2145 27.2214 20.2485 27.2214C20.2824 27.2214 20.3139 27.2124 20.3475 27.2114C20.5928 26.8345 20.9109 26.2123 21.1033 25.3457H19.3936Z" fill="#EC1C2A"/>
<path d="M23.538 22.958H21.9058C21.9342 23.2281 21.9539 23.509 21.9539 23.8106C21.9539 24.1123 21.9336 24.3929 21.9048 24.6631H23.538C23.6093 24.389 23.6591 24.1067 23.6591 23.8106C23.6591 23.5145 23.6093 23.2321 23.538 22.958Z" fill="#EC1C2A"/>
<path d="M21.2163 20.5576C21.4413 20.9984 21.6616 21.5696 21.8026 22.2764H23.2775C22.8573 21.4515 22.1175 20.8266 21.2163 20.5576Z" fill="#EC1C2A"/>
<path d="M20.349 20.4105C20.3149 20.4096 20.2831 20.4004 20.2488 20.4004C20.2148 20.4004 20.1832 20.4094 20.1496 20.4104C19.8948 20.8005 19.5824 21.4214 19.3931 22.276H21.1047C20.9161 21.4243 20.605 20.8032 20.349 20.4105Z" fill="#EC1C2A"/>
<path d="M21.2183 22.958H19.2792C19.2481 23.2263 19.2256 23.506 19.2256 23.8106C19.2256 24.115 19.2484 24.3947 19.2799 24.6631H21.2177C21.249 24.3947 21.2718 24.115 21.2718 23.8106C21.2718 23.506 21.2493 23.2264 21.2183 22.958Z" fill="#EC1C2A"/>
<path d="M17.2202 22.2764H18.6956C18.8368 21.5693 19.0572 20.9974 19.2814 20.5576C18.3801 20.8267 17.6403 21.4515 17.2202 22.2764Z" fill="#EC1C2A"/>
<path d="M18.5435 23.8106C18.5435 23.509 18.5633 23.2281 18.5918 22.958H16.9594C16.8882 23.2321 16.8384 23.5145 16.8384 23.8106C16.8384 24.1067 16.8882 24.389 16.9594 24.6631H18.5928C18.5639 24.3929 18.5435 24.1123 18.5435 23.8106Z" fill="#EC1C2A"/>
<path d="M21.8002 25.3457C21.6581 26.0541 21.4376 26.6298 21.2173 27.0642C22.1178 26.7949 22.8572 26.1703 23.2771 25.3457H21.8002Z" fill="#EC1C2A"/>
<path d="M32.1962 16.1652L24.2904 14.0468C23.5627 13.8518 22.8147 14.2837 22.6197 15.0114L21.9067 17.6725H25.023C25.4441 17.6725 25.8159 17.8674 26.066 18.1672C26.3255 18.2367 26.8109 18.3668 27.2561 18.4861L29.5015 16.3926L30.1301 16.561L28.723 18.8791C29.1359 18.9898 29.5574 19.1027 29.8336 19.1768L30.6867 18.6754L31.1058 18.7877L30.4443 19.7895L30.5162 20.988L30.0971 20.8757L29.609 20.015C29.3327 19.9409 28.9113 19.828 28.4983 19.7174L28.5579 22.4286L27.9293 22.2601L27.0315 19.3244C26.8122 19.2656 26.5934 19.207 26.3871 19.1517V27.355L27.0896 24.6825L27.7484 24.8591L26.3871 30.038V31.3137C26.3871 32.0671 25.7763 32.6778 25.023 32.6778H22.6701L27.43 33.9532C28.1576 34.1482 28.9057 33.7164 29.1006 32.9886L31.3085 24.7491L30.6479 24.5771L30.8251 23.9183L31.485 24.0902L33.1609 17.8359C33.3558 17.1082 32.9239 16.3602 32.1962 16.1652ZM27.3535 23.6942L26.6948 23.5176L26.872 22.8589L27.5307 23.0354L27.3535 23.6942ZM28.1888 23.2122L28.8482 23.3888L28.6723 24.0475L28.0129 23.871L28.1888 23.2122ZM27.783 32.6356L27.1242 32.459L29.066 25.2121L29.7247 25.3886L27.783 32.6356ZM29.9891 24.4005L29.3304 24.224L29.5076 23.5652L30.1663 23.7418L29.9891 24.4005Z" fill="#EC1C2A"/>
<path d="M25.0228 18.3545H14.792V31.9956H25.0228C25.399 31.9956 25.7049 31.6896 25.7049 31.3135V19.0365C25.7049 18.6605 25.399 18.3545 25.0228 18.3545ZM23.6587 30.6315H16.8382V29.9494H23.6587V30.6315ZM20.2484 27.9033C17.9883 27.9033 16.1561 26.0711 16.1561 23.8109C16.1561 21.5508 17.9883 19.7186 20.2484 19.7186C22.5086 19.7186 24.3408 21.5508 24.3408 23.8109C24.3408 26.0711 22.5086 27.9033 20.2484 27.9033Z" fill="#EC1C2A"/>
</g>
<defs>
<clipPath id="clip0">
<rect width="20" height="20" fill="white" transform="translate(14 14)"/>
</clipPath>
</defs>
</svg>
