<svg width="48" height="48" viewBox="0 0 48 48" fill="none" xmlns="http://www.w3.org/2000/svg">
<rect x="0.5" y="0.5" width="47" height="47" stroke="#E90707" stroke-opacity="0.2"/>
<g clip-path="url(#clip0)">
<path d="M31.5 14.834H16.5C15.1217 14.834 14 15.9557 14 17.334V30.6673C14 32.0457 15.1217 33.1673 16.5 33.1673H31.5C32.8783 33.1673 34 32.0457 34 30.6673V17.334C34 15.9557 32.8783 14.834 31.5 14.834ZM20.25 20.6673H23.1667V23.1673H20.25V20.6673ZM18.5833 23.1673H15.6667V20.6673H18.5833V23.1673ZM24.8333 20.6673H27.75V23.1673H24.8333V20.6673ZM29.4167 20.6673H32.3333V23.1673H29.4167V20.6673ZM15.6667 24.834H18.5833V27.334H15.6667V24.834ZM20.25 24.834H23.1667V27.334H20.25V24.834ZM23.1667 29.0007V31.5007H20.25V29.0007H23.1667ZM24.8333 29.0007H27.75V31.5007H24.8333V29.0007ZM24.8333 27.334V24.834H27.75V27.334H24.8333ZM29.4167 24.834H32.3333V27.334H29.4167V24.834ZM15.6667 30.6673V29.0007H18.5833V31.5007H16.5C16.0408 31.5007 15.6667 31.1265 15.6667 30.6673ZM31.5 31.5007H29.4167V29.0007H32.3333V30.6673C32.3333 31.1265 31.9592 31.5007 31.5 31.5007Z" fill="#EC1C2A"/>
</g>
<defs>
<clipPath id="clip0">
<rect width="20" height="20" fill="white" transform="translate(14 14)"/>
</clipPath>
</defs>
</svg>
