<svg width="48" height="48" viewBox="0 0 48 48" fill="none" xmlns="http://www.w3.org/2000/svg">
<rect x="0.5" y="0.5" width="47" height="47" stroke="#E90707" stroke-opacity="0.2"/>
<path d="M24 14C18.4775 14 14 18.4775 14 24C14 29.5225 18.4775 34 24 34C29.5225 34 34 29.5225 34 24C34 18.4775 29.5225 14 24 14ZM24 16.5C27.2544 16.5 30.0031 18.5963 31.0413 21.5H16.9588C17.9969 18.5963 20.7456 16.5 24 16.5ZM24 25.25C23.3094 25.25 22.75 24.6906 22.75 24C22.75 23.3094 23.3094 22.75 24 22.75C24.6906 22.75 25.25 23.3094 25.25 24C25.25 24.6906 24.6906 25.25 24 25.25ZM16.5 24C19.9156 24 22.6819 27.2913 22.74 31.3731C19.205 30.7675 16.5 27.7037 16.5 24ZM25.26 31.3731C25.3181 27.2913 28.0844 24 31.5 24C31.5 27.7037 28.795 30.7675 25.26 31.3731Z" fill="#EC1C2A"/>
</svg>
