<svg width="48" height="48" viewBox="0 0 48 48" fill="none" xmlns="http://www.w3.org/2000/svg">
<rect x="0.5" y="0.5" width="47" height="47" stroke="#E90707" stroke-opacity="0.2"/>
<path d="M18.2574 23.3525L18.042 24.1295H18.4631L18.2574 23.3525Z" fill="#EC1C2A"/>
<path d="M20.7121 24.084H20.1865V24.4725H20.6893C20.7937 24.4725 20.8754 24.4039 20.8754 24.2831C20.8754 24.1689 20.8068 24.084 20.7121 24.084Z" fill="#EC1C2A"/>
<path d="M20.6403 23.2324H20.1865V23.5882H20.6207C20.7056 23.5882 20.7937 23.5523 20.7937 23.4087C20.7937 23.2814 20.7219 23.2324 20.6403 23.2324Z" fill="#EC1C2A"/>
<path d="M14 27.3691V27.4659C14 28.4402 14.7927 29.2329 15.767 29.2329H32.233C33.2073 29.2329 34 28.4402 34 27.4659V27.3691H14Z" fill="#EC1C2A"/>
<path d="M14 21.9346V26.065H34V21.9346H14ZM18.7047 25.0077L18.5644 24.554H17.9473L17.8102 25.0077H17.1345L17.9996 22.6899H18.5154L19.3773 25.0077H18.7047ZM20.6893 25.0077H19.55V22.6899H20.895C21.2215 22.6899 21.4239 22.9903 21.4239 23.2841C21.4239 23.4995 21.3128 23.7215 21.0908 23.8195C21.3553 23.8978 21.5217 24.0904 21.5217 24.4136C21.5218 24.8314 21.1464 25.0077 20.6893 25.0077ZM22.7719 25.0273C22.1255 25.0273 21.6717 24.4234 21.6717 23.8293C21.6717 23.2645 22.0864 22.6769 22.7915 22.6769C23.2028 22.6769 23.5292 22.8793 23.6762 23.1829L23.1897 23.5289C23.1147 23.3037 22.9221 23.2416 22.7784 23.2416C22.4585 23.2416 22.3181 23.5583 22.3181 23.8489C22.3181 24.172 22.4912 24.4626 22.7849 24.4626C22.9319 24.4626 23.1146 24.3875 23.1799 24.1786L23.699 24.4888C23.5684 24.8315 23.1408 25.0273 22.7719 25.0273ZM24.923 24.3843H23.9012V23.8293H24.923V24.3843ZM26.8098 25.0078H25.2983V24.4528H25.7619V23.271C25.6901 23.3722 25.3995 23.5517 25.2232 23.5517V22.9838H25.2232C25.4582 22.9838 25.7553 22.6867 25.7618 22.6736H26.3952V24.4528H26.8098V25.0078H26.8098ZM28.7911 25.0077H27.0054C27.0054 24.407 27.0772 24.1328 27.5735 23.8978C27.8444 23.7705 28.0795 23.6562 28.0795 23.4179C28.0795 23.2612 27.9783 23.2122 27.8673 23.2122C27.6975 23.2122 27.5115 23.3265 27.3874 23.4473L27.0054 23.0327C27.1785 22.8368 27.5311 22.6638 27.9554 22.6638C28.4843 22.6638 28.7879 22.9314 28.7879 23.408C28.7879 23.7672 28.6181 23.9304 28.3276 24.1001C28.1415 24.2079 27.9293 24.3123 27.9293 24.4527H28.7911V25.0077ZM29.8062 25.0371C29.4602 25.0371 29.212 24.9196 29.0619 24.6584L29.3785 24.2275C29.4046 24.2536 29.4961 24.4691 29.7931 24.4691C29.94 24.4691 30.0836 24.4168 30.0836 24.2797C30.0836 24.11 29.8682 24.0577 29.483 24.0577H29.3752V23.5452H29.4797C29.767 23.5452 30.0249 23.4897 30.0249 23.3264C30.0249 23.2057 29.8877 23.2024 29.8518 23.2024C29.607 23.2024 29.483 23.3396 29.4242 23.4147L29.0324 22.9543C29.2055 22.7618 29.5548 22.6605 29.8486 22.6605C30.3317 22.6605 30.6909 22.9348 30.6909 23.2939C30.6909 23.5452 30.5146 23.7182 30.2697 23.7672C30.5537 23.8129 30.73 24.0741 30.73 24.3647C30.7301 24.851 30.2404 25.0371 29.8062 25.0371Z" fill="#EC1C2A"/>
<path d="M32.233 18.7666H15.767C14.7927 18.7666 14 19.5593 14 20.5336V20.6303H34V20.5336C34 19.5593 33.2073 18.7666 32.233 18.7666Z" fill="#EC1C2A"/>
</svg>
