<svg width="48" height="48" viewBox="0 0 48 48" fill="none" xmlns="http://www.w3.org/2000/svg">
<rect x="0.5" y="0.5" width="47" height="47" stroke="#E90707" stroke-opacity="0.2"/>
<path d="M34.0001 27.333C34.0001 26.9847 33.7409 26.7413 33.3701 26.7413C33.1609 26.7413 32.8026 26.8488 32.4942 27.0263C32.0859 26.1663 31.4192 25.4038 30.9426 25.1663C30.6267 25.0088 29.5509 24.833 28.5834 24.833C27.6159 24.833 26.5401 25.0088 26.2234 25.1663C25.7476 25.4038 25.0809 26.1663 24.6726 27.0263C24.3634 26.8488 24.0051 26.7413 23.7967 26.7413C23.6384 26.7413 23.5017 26.783 23.3934 26.8646C23.2476 26.9738 23.1667 27.1405 23.1667 27.333C23.1667 27.983 23.6709 28.4338 23.7292 28.483C23.7759 28.523 23.8292 28.5471 23.8842 28.563C23.8317 28.713 23.7851 28.8655 23.7476 29.0171C24.9684 29.0805 26.5001 29.3397 26.5001 30.2497C26.5001 30.4797 26.3134 30.6664 26.0834 30.6664C25.8534 30.6664 25.6667 30.4797 25.6667 30.2497C25.5417 30.0855 24.6125 29.8989 23.6059 29.8472C23.5934 29.988 23.5834 30.1289 23.5834 30.2497C23.5834 30.8722 23.6409 31.9339 24.0001 32.4764V33.1664C24.0001 33.6339 24.3659 33.9997 24.8334 33.9997H25.6667C26.1342 33.9997 26.5 33.6339 26.5 33.1664V32.8839C27.0033 33.0097 27.7883 33.1664 28.5833 33.1664C29.3783 33.1664 30.1633 33.0097 30.6667 32.8839V33.1664C30.6667 33.6339 31.0325 33.9997 31.5 33.9997H32.3333C32.8008 33.9997 33.1666 33.6339 33.1666 33.1664V32.4764C33.5258 31.9339 33.5833 30.8722 33.5833 30.2497C33.5833 30.128 33.5733 29.988 33.5608 29.8472C32.5533 29.8997 31.6233 30.0922 31.4891 30.2914C31.4891 30.5214 31.3075 30.688 31.0783 30.688C30.8483 30.688 30.6666 30.4805 30.6666 30.2505C30.6666 29.3405 32.1983 29.0814 33.4191 29.018C33.3816 28.8655 33.3341 28.7139 33.2824 28.5639C33.3375 28.548 33.3908 28.5239 33.4375 28.4839C33.4959 28.4339 34.0001 27.983 34.0001 27.333ZM29.4167 30.6664H27.7501C27.5201 30.6664 27.3334 30.4797 27.3334 30.2497C27.3334 30.0197 27.5201 29.833 27.7501 29.833H29.4167C29.6467 29.833 29.8334 30.0197 29.8334 30.2497C29.8334 30.4797 29.6467 30.6664 29.4167 30.6664ZM31.6276 27.9205C31.6259 27.9205 31.6242 27.9205 31.6234 27.9213C31.4559 27.9396 31.2826 27.9571 31.1084 27.9755C31.0867 27.978 31.0659 27.9797 31.0442 27.9822C30.8659 28.0005 30.6859 28.018 30.5084 28.0347C30.4626 28.0389 30.4184 28.043 30.3734 28.0472C30.2426 28.0597 30.1134 28.0714 29.9867 28.0822C29.9292 28.0872 29.8742 28.0914 29.8184 28.0964C29.7067 28.1055 29.5992 28.1139 29.4942 28.1222C29.4392 28.1264 29.385 28.1305 29.3325 28.1339C29.2308 28.1405 29.1367 28.1464 29.045 28.1514C29.0017 28.1539 28.955 28.1564 28.915 28.158C28.7908 28.163 28.6767 28.1664 28.5833 28.1664C28.49 28.1664 28.3758 28.163 28.2517 28.1572C28.2108 28.1555 28.165 28.1522 28.1217 28.1505C28.03 28.1455 27.9359 28.1405 27.8342 28.133C27.7817 28.1297 27.7283 28.1255 27.6733 28.1213C27.5683 28.1138 27.4608 28.1055 27.3483 28.0955C27.2925 28.0905 27.2375 28.0863 27.18 28.0813C27.0542 28.0705 26.9242 28.0588 26.7933 28.0463C26.7483 28.0421 26.7042 28.038 26.6583 28.0338C26.4808 28.0171 26.3008 27.9988 26.1225 27.9813C26.1008 27.9788 26.08 27.9771 26.0592 27.9746C25.7709 27.9455 25.4925 27.9155 25.2267 27.8863C25.2292 27.8796 25.2309 27.8746 25.2334 27.868C25.5101 26.9388 26.2734 26.073 26.5951 25.9122C26.7501 25.8414 27.6392 25.6664 28.5834 25.6664C29.5275 25.6664 30.4167 25.8414 30.5709 25.9122C30.8942 26.073 31.6576 26.9389 31.9342 27.8689C31.9367 27.8755 31.9384 27.8805 31.9409 27.8872C31.8367 27.898 31.7359 27.9097 31.6276 27.9205Z" fill="#EC1C2A"/>
<path d="M31.9167 14H16.0833C14.9342 14 14 14.9342 14 16.0833V16.5H34V16.0833C34 14.9342 33.0658 14 31.9167 14Z" fill="#EC1C2A"/>
<path d="M14 26.9164C14 28.0655 14.9342 28.9997 16.0833 28.9997H22.265C22.495 28.9997 22.6817 28.813 22.6817 28.583C22.6817 28.473 22.6392 28.373 22.57 28.2988C22.4108 27.9813 22.3333 27.6646 22.3333 27.333H16.0833C15.8533 27.333 15.6666 27.1463 15.6666 26.9163C15.6666 25.8713 16.375 24.9646 17.3875 24.7113L18.6383 24.3996L18.6991 24.1546C18.3941 23.8046 18.1766 23.3655 18.0833 22.9105C17.8291 22.7996 17.6566 22.5746 17.6225 22.303L17.5325 21.578C17.5041 21.358 17.5725 21.1346 17.7208 20.9671C17.7708 20.9113 17.8266 20.863 17.8883 20.8238C17.865 20.6088 17.84 20.3513 17.84 20.2138C17.84 19.5163 18.0416 18.5921 19.7566 18.5321C20.3383 18.1663 20.9375 18.1663 21.2033 18.1663C22.1058 18.1663 22.555 18.5655 22.7733 18.8988C23.2333 19.6013 22.9425 20.0896 22.7275 20.3171L22.6517 20.3938L22.63 20.8363C22.6858 20.8738 22.7375 20.9188 22.7825 20.9705C22.9283 21.1363 22.9958 21.3588 22.9683 21.578L22.8783 22.3013C22.8458 22.5638 22.6833 22.783 22.4608 22.898C22.3658 23.373 22.135 23.8305 21.8108 24.1888L21.8633 24.3988L23.1141 24.7105C23.7033 24.858 24.1833 25.2297 24.4866 25.7172C24.9216 25.1105 25.4175 24.638 25.8525 24.4205C26.38 24.1572 27.6558 23.9997 28.5833 23.9997C29.5108 23.9997 30.7858 24.1564 31.3133 24.4205C31.76 24.6438 32.2691 25.1322 32.7116 25.7605C32.8016 25.8872 32.9566 25.953 33.11 25.933C33.255 25.9147 33.3241 25.8988 33.5408 25.9213C33.6591 25.933 33.7741 25.8955 33.8633 25.8163C33.95 25.738 34 25.6255 34 25.508V17.333H14V26.9164ZM30.25 18.9997H31.9167C32.1467 18.9997 32.3334 19.1864 32.3334 19.4164C32.3334 19.6464 32.1467 19.833 31.9167 19.833H30.25C30.02 19.833 29.8333 19.6464 29.8333 19.4164C29.8333 19.1864 30.02 18.9997 30.25 18.9997ZM26.0833 18.9997H28.5833C28.8133 18.9997 29 19.1864 29 19.4164C29 19.6464 28.8133 19.833 28.5833 19.833H26.0833C25.8533 19.833 25.6666 19.6464 25.6666 19.4164C25.6666 19.1864 25.8533 18.9997 26.0833 18.9997ZM26.0833 21.4997H31.9166C32.1466 21.4997 32.3333 21.6864 32.3333 21.9164C32.3333 22.1464 32.1466 22.333 31.9166 22.333H26.0833C25.8533 22.333 25.6666 22.1464 25.6666 21.9164C25.6666 21.6864 25.8533 21.4997 26.0833 21.4997Z" fill="#EC1C2A"/>
</svg>
