<svg width="48" height="48" viewBox="0 0 48 48" fill="none" xmlns="http://www.w3.org/2000/svg">
<rect x="0.5" y="0.5" width="47" height="47" stroke="#E90707" stroke-opacity="0.2"/>
<path d="M32.7061 29.5996C32.706 29.5988 32.706 29.5981 32.706 29.5972V16.0649C32.7335 14.98 31.8763 14.078 30.7913 14.0504C30.7662 14.0498 30.741 14.0496 30.7159 14.05H18.5269C18.8601 14.4846 19.0356 15.0198 19.0244 15.5674V29.5972C19.0643 30.237 19.6023 30.7312 20.2433 30.7166H25.3428V28.5773C24.6428 27.8782 24.2491 26.9297 24.2482 25.9404C24.2295 23.8385 25.9183 22.1195 28.0202 22.1007C30.1221 22.082 31.8412 23.7708 31.8599 25.8727C31.8689 26.8838 31.4752 27.8569 30.7657 28.5773V30.7166H31.6861C32.2762 30.6899 32.7329 30.1897 32.7061 29.5996ZM21.4622 17.0351H25.8154C26.0215 17.0351 26.1886 17.2022 26.1886 17.4082C26.1886 17.6143 26.0215 17.7814 25.8154 17.7814H21.4622C21.2561 17.7814 21.089 17.6143 21.089 17.4082C21.089 17.2022 21.2561 17.0351 21.4622 17.0351ZM30.293 20.2689H21.4622C21.2561 20.2689 21.089 20.1018 21.089 19.8958C21.089 19.6897 21.2561 19.5226 21.4622 19.5226H30.293C30.4991 19.5226 30.6662 19.6897 30.6662 19.8958C30.6662 20.1019 30.4991 20.2689 30.293 20.2689Z" fill="#EC1C2A"/>
<path d="M17.0591 14.0498H16.7855V14C15.9548 14.0519 15.3043 14.735 15.293 15.5672V23.5274C15.293 24.1493 15.7407 24.7463 16.3378 24.7463H18.278V15.5672C18.278 14.796 17.8054 14.2985 17.0591 14.0498Z" fill="#EC1C2A"/>
<path d="M28.0543 28.9749C29.7442 28.9749 31.114 27.605 31.114 25.9152C31.114 24.2253 29.7442 22.8555 28.0543 22.8555C26.3645 22.8555 24.9946 24.2253 24.9946 25.9152C24.9946 27.605 26.3645 28.9749 28.0543 28.9749Z" fill="#EC1C2A"/>
<path d="M26.064 29.1494L26.1137 34.0002L27.8053 32.7315C27.9481 32.6352 28.1351 32.6352 28.2779 32.7315L29.9695 34.0002V29.1743C29.3846 29.5301 28.7137 29.7194 28.0292 29.7216C27.3321 29.7275 26.6488 29.5286 26.064 29.1494Z" fill="#EC1C2A"/>
</svg>
