<svg width="48" height="48" viewBox="0 0 48 48" fill="none" xmlns="http://www.w3.org/2000/svg">
<rect x="0.5" y="0.5" width="47" height="47" stroke="#E90707" stroke-opacity="0.2"/>
<path fill-rule="evenodd" clip-rule="evenodd" d="M15 15.7578V17.5156H15.6H16.2V16.3438V15.1719H17.4H18.6V14.5859V14H16.8H15V15.7578ZM29.4 14.5859V15.1719H30.6H31.8V16.3438V17.5156H32.4H33V15.7578V14H31.2H29.4V14.5859ZM18.6 21.0703V25.7578H16.8H15V26.3438V26.9297H24H33V26.3438V25.7578H31.2H29.4V23.4141V21.0703H27H24.6V18.7266V16.3828H21.6H18.6V21.0703ZM25.8 18.3359V19.8984H27.4098H29.0196L27.42 18.3359C26.5402 17.4766 25.8158 16.7734 25.8102 16.7734C25.8046 16.7734 25.8 17.4766 25.8 18.3359ZM23.4 21.6562V22.2422H22.2H21V21.6562V21.0703H22.2H23.4V21.6562ZM27 24V24.5859H24H21V24V23.4141H24H27V24ZM18.6 29.8594V31.6172H24H29.4V29.8594V28.1016H24H18.6V29.8594ZM27 29.8594V30.4453H24H21V29.8594V29.2734H24H27V29.8594ZM15 32.2422V34H16.8H18.6V33.4141V32.8281H17.4H16.2V31.6562V30.4844H15.6H15V32.2422ZM31.8 31.6562V32.8281H30.6H29.4V33.4141V34H31.2H33V32.2422V30.4844H32.4H31.8V31.6562Z" fill="#EC1C2A"/>
</svg>
